<svg version="1.1" xmlns="http://www.w3.org/2000/svg" xmlns:xlink="http://www.w3.org/1999/xlink" width="991" height="685"><defs><clipPath id="PpITZdvNogZk"><path fill="none" stroke="none" d=" M 0 0 L 991 0 L 991 685 L 0 685 L 0 0 Z"/></clipPath></defs><g transform="scale(1,1)" clip-path="url(#PpITZdvNogZk)"><g><rect fill="rgb(255,255,255)" stroke="none" x="0" y="0" width="991" height="685" fill-opacity="1"/><path fill="none" stroke="rgb(110,109,115)" paint-order="fill stroke markers" d=" M 665.6370079985795 368.9960336471699 C 665.6370079985795 516.7979867437725 545.8198513118949 636.6151434304577 398.01789821529275 636.6151434304577 C 250.21594511869057 636.6151434304577 130.39878843200592 516.7979867437725 130.39878843200592 368.9960336471699 C 130.39878843200592 221.19408055056718 250.21594511869057 101.3769238638821 398.01789821529275 101.3769238638821 C 545.8198513118949 101.3769238638821 665.6370079985795 221.19408055056718 665.6370079985795 368.9960336471699 Z" stroke-opacity="0.8" stroke-linecap="round" stroke-linejoin="round" stroke-miterlimit="10" stroke-width="2.5"/><path fill="rgb(0,0,0)" stroke="none" paint-order="stroke fill markers" d=" M 428.01789821529263 368.9960336471699 C 428.01789821529263 361.03808725088743 424.85604274806093 353.40620013669434 419.22813914893743 347.77986812328834 L 398.01789821529275 368.9960336471699 Z" fill-opacity="0.09803921568627451"/><path fill="none" stroke="rgb(0,0,0)" paint-order="fill stroke markers" d=" M 428.01789821529263 368.9960336471699 C 428.01789821529263 361.03808725088743 424.85604274806093 353.40620013669434 419.22813914893743 347.77986812328834 L 398.01789821529275 368.9960336471699 Z" stroke-opacity="0.6" stroke-linecap="round" stroke-linejoin="round" stroke-miterlimit="10" stroke-width="2"/><text fill="rgb(0,0,0)" stroke="none" font-family="geogebra-sans-serif, sans-serif" font-size="16px" font-style="normal" font-weight="normal" text-decoration="normal" x="433" y="354" text-anchor="start" dominant-baseline="alphabetic" fill-opacity="1">α = 45°</text><path fill="none" stroke="rgb(110,109,115)" paint-order="fill stroke markers" d=" M 398.01789821529275 368.9960336471699 L 665.6370079985795 368.9960336471699" stroke-opacity="0.8" stroke-linecap="round" stroke-linejoin="round" stroke-miterlimit="10" stroke-width="2.5"/><path fill="none" stroke="rgb(110,109,115)" paint-order="fill stroke markers" d=" M 398.01789821529275 368.9960336471699 L 665.6370079985795 101.30217065528007" stroke-opacity="0.8" stroke-linecap="round" stroke-linejoin="round" stroke-miterlimit="10" stroke-width="2.5"/><path fill="none" stroke="rgb(110,109,115)" paint-order="fill stroke markers" d=" M 665.6370079985795 101.30217065528007 L 665.6370079985795 368.9960336471699" stroke-opacity="0.8" stroke-linecap="round" stroke-linejoin="round" stroke-miterlimit="10" stroke-width="2.5"/><path fill="rgb(0,0,0)" stroke="none" paint-order="stroke fill markers" d=" M 402.01789821529275 368.9960336471699 C 402.01789821529275 371.20517264649305 400.2270372146159 372.9960336471699 398.01789821529275 372.9960336471699 C 395.8087592159696 372.9960336471699 394.01789821529275 371.20517264649305 394.01789821529275 368.9960336471699 C 394.01789821529275 366.78689464784674 395.8087592159696 364.9960336471699 398.01789821529275 364.9960336471699 C 400.2270372146159 364.9960336471699 402.01789821529275 366.78689464784674 402.01789821529275 368.9960336471699 Z" fill-opacity="1"/><path fill="none" stroke="rgb(0,0,0)" paint-order="fill stroke markers" d=" M 402.01789821529275 368.9960336471699 C 402.01789821529275 371.20517264649305 400.2270372146159 372.9960336471699 398.01789821529275 372.9960336471699 C 395.8087592159696 372.9960336471699 394.01789821529275 371.20517264649305 394.01789821529275 368.9960336471699 C 394.01789821529275 366.78689464784674 395.8087592159696 364.9960336471699 398.01789821529275 364.9960336471699 C 400.2270372146159 364.9960336471699 402.01789821529275 366.78689464784674 402.01789821529275 368.9960336471699 Z" stroke-opacity="1" stroke-linecap="round" stroke-linejoin="round" stroke-miterlimit="10"/><text fill="rgb(0,0,0)" stroke="none" font-family="geogebra-sans-serif, sans-serif" font-size="16px" font-style="normal" font-weight="normal" text-decoration="normal" x="402" y="361" text-anchor="start" dominant-baseline="alphabetic" fill-opacity="1">A</text><path fill="rgb(0,0,0)" stroke="none" paint-order="stroke fill markers" d=" M 670.6370079985795 368.9960336471699 C 670.6370079985795 371.75745739632384 668.3984317477335 373.9960336471699 665.6370079985795 373.9960336471699 C 662.8755842494255 373.9960336471699 660.6370079985795 371.75745739632384 660.6370079985795 368.9960336471699 C 660.6370079985795 366.23460989801595 662.8755842494255 363.9960336471699 665.6370079985795 363.9960336471699 C 668.3984317477335 363.9960336471699 670.6370079985795 366.23460989801595 670.6370079985795 368.9960336471699 Z" fill-opacity="1"/><path fill="none" stroke="rgb(0,0,0)" paint-order="fill stroke markers" d=" M 670.6370079985795 368.9960336471699 C 670.6370079985795 371.75745739632384 668.3984317477335 373.9960336471699 665.6370079985795 373.9960336471699 C 662.8755842494255 373.9960336471699 660.6370079985795 371.75745739632384 660.6370079985795 368.9960336471699 C 660.6370079985795 366.23460989801595 662.8755842494255 363.9960336471699 665.6370079985795 363.9960336471699 C 668.3984317477335 363.9960336471699 670.6370079985795 366.23460989801595 670.6370079985795 368.9960336471699 Z" stroke-opacity="1" stroke-linecap="round" stroke-linejoin="round" stroke-miterlimit="10"/><text fill="rgb(0,0,0)" stroke="none" font-family="geogebra-sans-serif, sans-serif" font-size="16px" font-style="normal" font-weight="normal" text-decoration="normal" x="670" y="359" text-anchor="start" dominant-baseline="alphabetic" fill-opacity="1">B</text><path fill="rgb(21,101,192)" stroke="none" paint-order="stroke fill markers" d=" M 592.2267581136606 179.73432262996764 C 592.2267581136606 182.4957463791216 589.9881818628146 184.73432262996764 587.2267581136606 184.73432262996764 C 584.4653343645066 184.73432262996764 582.2267581136606 182.4957463791216 582.2267581136606 179.73432262996764 C 582.2267581136606 176.97289888081366 584.4653343645066 174.73432262996764 587.2267581136606 174.73432262996764 C 589.9881818628146 174.73432262996764 592.2267581136606 176.97289888081366 592.2267581136606 179.73432262996764 Z" fill-opacity="1"/><path fill="none" stroke="rgb(0,0,0)" paint-order="fill stroke markers" d=" M 592.2267581136606 179.73432262996764 C 592.2267581136606 182.4957463791216 589.9881818628146 184.73432262996764 587.2267581136606 184.73432262996764 C 584.4653343645066 184.73432262996764 582.2267581136606 182.4957463791216 582.2267581136606 179.73432262996764 C 582.2267581136606 176.97289888081366 584.4653343645066 174.73432262996764 587.2267581136606 174.73432262996764 C 589.9881818628146 174.73432262996764 592.2267581136606 176.97289888081366 592.2267581136606 179.73432262996764 Z" stroke-opacity="1" stroke-linecap="round" stroke-linejoin="round" stroke-miterlimit="10"/><text fill="rgb(21,101,192)" stroke="none" font-family="geogebra-sans-serif, sans-serif" font-size="16px" font-style="normal" font-weight="normal" text-decoration="normal" x="591" y="170" text-anchor="start" dominant-baseline="alphabetic" fill-opacity="1">C</text><path fill="rgb(110,109,115)" stroke="none" paint-order="stroke fill markers" d=" M 669.6370079985795 101.30217065528007 C 669.6370079985795 103.51130965460324 667.8461469979027 105.30217065528007 665.6370079985795 105.30217065528007 C 663.4278689992564 105.30217065528007 661.6370079985795 103.51130965460324 661.6370079985795 101.30217065528007 C 661.6370079985795 99.09303165595689 663.4278689992564 97.30217065528007 665.6370079985795 97.30217065528007 C 667.8461469979027 97.30217065528007 669.6370079985795 99.09303165595689 669.6370079985795 101.30217065528007 Z" fill-opacity="1"/><path fill="none" stroke="rgb(0,0,0)" paint-order="fill stroke markers" d=" M 669.6370079985795 101.30217065528007 C 669.6370079985795 103.51130965460324 667.8461469979027 105.30217065528007 665.6370079985795 105.30217065528007 C 663.4278689992564 105.30217065528007 661.6370079985795 103.51130965460324 661.6370079985795 101.30217065528007 C 661.6370079985795 99.09303165595689 663.4278689992564 97.30217065528007 665.6370079985795 97.30217065528007 C 667.8461469979027 97.30217065528007 669.6370079985795 99.09303165595689 669.6370079985795 101.30217065528007 Z" stroke-opacity="1" stroke-linecap="round" stroke-linejoin="round" stroke-miterlimit="10"/><text fill="rgb(110,109,115)" stroke="none" font-family="geogebra-sans-serif, sans-serif" font-size="16px" font-style="normal" font-weight="normal" text-decoration="normal" x="670" y="93" text-anchor="start" dominant-baseline="alphabetic" fill-opacity="1">D</text></g></g></svg>