<?xml version="1.0" encoding="UTF-8" standalone="no"?>
<svg
   version="1.1"
   width="3in"
   height="3in"
   id="svg16"
   sodipodi:docname="angledemo.svg"
   inkscape:version="1.4.3 (0d15f75, 2025-12-25)"
   inkscape:export-filename="angledemo2.svg"
   inkscape:export-xdpi="96"
   inkscape:export-ydpi="96"
   xmlns:inkscape="http://www.inkscape.org/namespaces/inkscape"
   xmlns:sodipodi="http://sodipodi.sourceforge.net/DTD/sodipodi-0.dtd"
   xmlns="http://www.w3.org/2000/svg"
   xmlns:svg="http://www.w3.org/2000/svg"
   xmlns:ns5="http://www.iki.fi/pav/software/textext/">
  <sodipodi:namedview
     id="namedview16"
     pagecolor="#ffffff"
     bordercolor="#000000"
     borderopacity="0.25"
     inkscape:showpageshadow="2"
     inkscape:pageopacity="0.0"
     inkscape:pagecheckerboard="0"
     inkscape:deskcolor="#d1d1d1"
     inkscape:zoom="1.5466697"
     inkscape:cx="179.74103"
     inkscape:cy="90.840341"
     inkscape:window-width="1379"
     inkscape:window-height="842"
     inkscape:window-x="61"
     inkscape:window-y="30"
     inkscape:window-maximized="1"
     inkscape:current-layer="svg16"
     inkscape:document-units="in" />
  <defs
     id="defs1" />
  <g
     inkscape:groupmode="layer"
     id="layer1"
     inkscape:label="BackgroundLayer"
     sodipodi:insensitive="true"
     style="display:inline">
    <rect
       style="fill:#ffffff;stroke:none;stroke-width:0;stroke-linecap:square;stroke-dasharray:none"
       id="rect1"
       height="1122.5197"
       x="0"
       y="0"
       width="793.70081"
       sodipodi:insensitive="true" />
  </g>
  <g
     id="g17">
    <path
       fill="none"
       stroke="#6e6d73"
       paint-order="fill stroke markers"
       d="m 248.81364,146.5707 c 0,61.86424 -50.14967,112.01512 -112.01242,112.01512 -61.862744,0 -112.012411,-50.15088 -112.012411,-112.01512 0,-61.864236 50.149667,-112.015113 112.012411,-112.015113 61.86275,0 112.01242,50.150877 112.01242,112.015113 z"
       stroke-opacity="0.8"
       stroke-linecap="round"
       stroke-linejoin="round"
       stroke-miterlimit="10"
       stroke-width="2.5"
       id="path2"
       style="fill:none;stroke:#000000" />
    <path
       fill="none"
       stroke="#000000"
       paint-order="fill stroke markers"
       d="m 169.49626,146.06979 c -0.17274,-2.44053 0.71369,-6.46656 -2.22068,-12.72777 -2.93436,-6.26121 -5.52008,-7.31491 -7.9773,-8.45206 -1.97197,-0.91259 -22.49706,21.68074 -22.49706,21.68074 0,0 32.81859,1.24483 32.69504,-0.50091 z"
       stroke-opacity="0.6"
       stroke-linecap="round"
       stroke-linejoin="round"
       stroke-miterlimit="10"
       stroke-width="2"
       id="path4"
       sodipodi:nodetypes="szscs" />
    <path
       fill="none"
       stroke="#6e6d73"
       paint-order="fill stroke markers"
       d="M 136.80122,146.5707 H 248.81364"
       stroke-opacity="0.8"
       stroke-linecap="round"
       stroke-linejoin="round"
       stroke-miterlimit="10"
       stroke-width="2.5"
       id="path5"
       style="stroke:#ff0000"
       inkscape:label="path5" />
    <path
       fill="none"
       stroke="#6e6d73"
       paint-order="fill stroke markers"
       d="M 136.80122,146.5707 248.81364,34.5243"
       stroke-opacity="0.8"
       stroke-linecap="round"
       stroke-linejoin="round"
       stroke-miterlimit="10"
       stroke-width="2.5"
       id="path6"
       style="stroke:#0000ff" />
    <path
       fill="none"
       stroke="#6e6d73"
       paint-order="fill stroke markers"
       d="M 248.81364,34.5243 V 146.5707"
       stroke-opacity="0.8"
       stroke-linecap="round"
       stroke-linejoin="round"
       stroke-miterlimit="10"
       stroke-width="2.5"
       id="path7"
       style="stroke:#ff0000" />
    <path
       fill="#000000"
       stroke="none"
       paint-order="stroke fill markers"
       d="m 138.47543,146.5707 c 0,0.92466 -0.74957,1.67425 -1.67421,1.67425 -0.92464,0 -1.6742,-0.74959 -1.6742,-1.67425 0,-0.92466 0.74956,-1.67424 1.6742,-1.67424 0.92464,0 1.67421,0.74958 1.67421,1.67424 z"
       fill-opacity="1"
       id="path8"
       style="stroke-width:0.999999" />
    <path
       fill="none"
       stroke="#000000"
       paint-order="fill stroke markers"
       d="m 138.47543,146.5707 c 0,0.92466 -0.74957,1.67425 -1.67421,1.67425 -0.92464,0 -1.6742,-0.74959 -1.6742,-1.67425 0,-0.92466 0.74956,-1.67424 1.6742,-1.67424 0.92464,0 1.67421,0.74958 1.67421,1.67424 z"
       stroke-opacity="1"
       stroke-linecap="round"
       stroke-linejoin="round"
       stroke-miterlimit="10"
       id="path9"
       style="stroke-width:0.999999" />
    <text
       fill="#000000"
       stroke="none"
       font-family="geogebra-sans-serif, sans-serif"
       font-size="19.6344px"
       font-style="normal"
       font-weight="normal"
       text-decoration="normal"
       x="113.47182"
       y="155.54131"
       text-anchor="start"
       dominant-baseline="alphabetic"
       fill-opacity="1"
       id="text9"
       style="font-size:26.6667px;stroke-width:1">A</text>
    <path
       fill="#000000"
       stroke="none"
       paint-order="stroke fill markers"
       d="m 250.9064,146.5707 c 0,1.15583 -0.93696,2.09281 -2.09276,2.09281 -1.1558,0 -2.09276,-0.93698 -2.09276,-2.09281 0,-1.15582 0.93696,-2.09281 2.09276,-2.09281 1.1558,0 2.09276,0.93699 2.09276,2.09281 z"
       fill-opacity="1"
       id="path10"
       style="stroke-width:0.999999" />
    <path
       fill="none"
       stroke="#000000"
       paint-order="fill stroke markers"
       d="m 250.9064,146.5707 c 0,1.15583 -0.93696,2.09281 -2.09276,2.09281 -1.1558,0 -2.09276,-0.93698 -2.09276,-2.09281 0,-1.15582 0.93696,-2.09281 2.09276,-2.09281 1.1558,0 2.09276,0.93699 2.09276,2.09281 z"
       stroke-opacity="1"
       stroke-linecap="round"
       stroke-linejoin="round"
       stroke-miterlimit="10"
       id="path11"
       style="stroke-width:0.999999" />
    <text
       fill="#000000"
       stroke="none"
       font-family="geogebra-sans-serif, sans-serif"
       font-size="24.967px"
       font-style="normal"
       font-weight="normal"
       text-decoration="normal"
       x="252.36496"
       y="154.90768"
       text-anchor="start"
       dominant-baseline="alphabetic"
       fill-opacity="1"
       id="text11"
       style="stroke-width:1"><tspan
         style="font-size:26.6667px"
         id="tspan1">B</tspan></text>
    <path
       fill="#1565c0"
       stroke="none"
       paint-order="stroke fill markers"
       d="m 218.08766,67.352995 c 0,1.155829 -0.93696,2.092809 -2.09276,2.092809 -1.1558,0 -2.09276,-0.93698 -2.09276,-2.092809 0,-1.155825 0.93696,-2.092808 2.09276,-2.092808 1.1558,0 2.09276,0.936983 2.09276,2.092808 z"
       fill-opacity="1"
       id="path12"
       style="stroke-width:0.999999" />
    <path
       fill="none"
       stroke="#000000"
       paint-order="fill stroke markers"
       d="m 218.08766,67.352995 c 0,1.155829 -0.93696,2.092809 -2.09276,2.092809 -1.1558,0 -2.09276,-0.93698 -2.09276,-2.092809 0,-1.155825 0.93696,-2.092808 2.09276,-2.092808 1.1558,0 2.09276,0.936983 2.09276,2.092808 z"
       stroke-opacity="1"
       stroke-linecap="round"
       stroke-linejoin="round"
       stroke-miterlimit="10"
       id="path13"
       style="stroke-width:0.999999" />
    <text
       fill="#1565c0"
       stroke="none"
       font-family="geogebra-sans-serif, sans-serif"
       font-size="19.1568px"
       font-style="normal"
       font-weight="normal"
       text-decoration="normal"
       x="205.3562"
       y="56.100925"
       text-anchor="start"
       dominant-baseline="alphabetic"
       fill-opacity="1"
       id="text13"
       style="font-size:26.6667px;stroke-width:1">C</text>
    <path
       fill="#6e6d73"
       stroke="none"
       paint-order="stroke fill markers"
       d="m 250.48784,34.5243 c 0,0.924661 -0.74956,1.674246 -1.6742,1.674246 -0.92464,0 -1.67421,-0.749585 -1.67421,-1.674246 0,-0.924662 0.74957,-1.674247 1.67421,-1.674247 0.92464,0 1.6742,0.749585 1.6742,1.674247 z"
       fill-opacity="1"
       id="path14"
       style="stroke-width:0.999999" />
    <path
       fill="none"
       stroke="#000000"
       paint-order="fill stroke markers"
       d="m 250.48784,34.5243 c 0,0.924661 -0.74956,1.674246 -1.6742,1.674246 -0.92464,0 -1.67421,-0.749585 -1.67421,-1.674246 0,-0.924662 0.74957,-1.674247 1.67421,-1.674247 0.92464,0 1.6742,0.749585 1.6742,1.674247 z"
       stroke-opacity="1"
       stroke-linecap="round"
       stroke-linejoin="round"
       stroke-miterlimit="10"
       id="path15"
       style="stroke-width:0.999999" />
    <text
       fill="#6e6d73"
       stroke="none"
       font-family="geogebra-sans-serif, sans-serif"
       font-size="19.7445px"
       font-style="normal"
       font-weight="normal"
       text-decoration="normal"
       x="251.87315"
       y="31.549862"
       text-anchor="start"
       dominant-baseline="alphabetic"
       fill-opacity="1"
       id="text15"
       style="font-size:26.6667px;stroke-width:0.999999">D</text>
    <g
       id="g806"
       transform="matrix(2.2971627,0,0,2.2971627,167.37211,115.98864)"
       ns5:version="1.13.0"
       ns5:texconverter="lualatex"
       ns5:pdfconverter="inkscape"
       ns5:text="\\(\\alpha=45^{\\circ}\\)"
       ns5:preamble="/Users/ivans/Library/Application Support/org.inkscape.Inkscape/config/inkscape/extensions/textext/default_packages.tex"
       ns5:scale="2.0"
       ns5:alignment="middle center"
       ns5:inkscapeversion="1.4.3"
       ns5:jacobian_sqrt="2.66666"
       style="stroke-width:0">
      <defs
         id="defs4008"
         style="stroke-width:0">
        <g
           id="g1398"
           style="stroke-width:0">
          <g
             id="g1078"
             style="stroke-width:0">
            <path
               d="m 4.75,-2.359375 c 0,-1.5625 -0.921875,-2.046875 -1.65625,-2.046875 -1.375,0 -2.6875,1.421875 -2.6875,2.828125 0,0.9375 0.59375,1.6875 1.625,1.6875 0.625,0 1.34375,-0.234375 2.09375,-0.84375 0.125,0.53125 0.453125,0.84375 0.90625,0.84375 0.53125,0 0.84375,-0.546875 0.84375,-0.703125 0,-0.078125 -0.0625,-0.109375 -0.125,-0.109375 -0.0625,0 -0.09375,0.03125 -0.125,0.109375 -0.1875,0.484375 -0.546875,0.484375 -0.5625,0.484375 -0.3125,0 -0.3125,-0.78125 -0.3125,-1.015625 0,-0.203125 0,-0.234375 0.109375,-0.34375 C 5.796875,-2.65625 6,-3.8125 6,-3.8125 6,-3.84375 5.984375,-3.921875 5.875,-3.921875 c -0.09375,0 -0.09375,0.03125 -0.140625,0.21875 -0.1875,0.625 -0.515625,1.375 -0.984375,1.96875 z m -0.65625,1.375 c -0.890625,0.765625 -1.65625,0.875 -2.046875,0.875 -0.59375,0 -0.90625,-0.453125 -0.90625,-1.09375 0,-0.484375 0.265625,-1.5625 0.578125,-2.0625 C 2.1875,-4 2.734375,-4.1875 3.078125,-4.1875 c 0.984375,0 0.984375,1.3125 0.984375,2.078125 0,0.375 0,0.953125 0.03125,1.125 z m 0,0"
               id="path756"
               style="stroke-width:0" />
          </g>
          <g
             id="g8945"
             style="stroke-width:0">
            <path
               d="m 6.84375,-3.265625 c 0.15625,0 0.34375,0 0.34375,-0.1875 C 7.1875,-3.65625 7,-3.65625 6.859375,-3.65625 h -5.96875 c -0.140625,0 -0.328125,0 -0.328125,0.203125 0,0.1875 0.1875,0.1875 0.328125,0.1875 z m 0.015625,1.9375 c 0.140625,0 0.328125,0 0.328125,-0.203125 0,-0.1875 -0.1875,-0.1875 -0.34375,-0.1875 H 0.890625 c -0.140625,0 -0.328125,0 -0.328125,0.1875 0,0.203125 0.1875,0.203125 0.328125,0.203125 z m 0,0"
               id="path9585"
               style="stroke-width:0" />
          </g>
          <g
             id="g2931"
             style="stroke-width:0">
            <path
               d="m 2.9375,-1.640625 v 0.859375 c 0,0.359375 -0.03125,0.46875 -0.765625,0.46875 H 1.96875 V 0 C 2.375,-0.03125 2.890625,-0.03125 3.3125,-0.03125 c 0.421875,0 0.9375,0 1.359375,0.03125 v -0.3125 h -0.21875 c -0.734375,0 -0.75,-0.109375 -0.75,-0.46875 V -1.640625 H 4.6875 v -0.3125 H 3.703125 v -4.53125 c 0,-0.203125 0,-0.265625 -0.171875,-0.265625 -0.078125,0 -0.109375,0 -0.1875,0.125 l -3.0625,4.671875 v 0.3125 z m 0.046875,-0.3125 H 0.5625 l 2.421875,-3.71875 z m 0,0"
               id="path1550"
               style="stroke-width:0" />
          </g>
          <g
             id="g9560"
             style="stroke-width:0">
            <path
               d="m 4.46875,-2 c 0,-1.1875 -0.8125,-2.1875 -1.890625,-2.1875 -0.46875,0 -0.90625,0.15625 -1.265625,0.515625 V -5.625 c 0.203125,0.0625 0.53125,0.125 0.84375,0.125 1.234375,0 1.9375,-0.90625 1.9375,-1.03125 0,-0.0625 -0.03125,-0.109375 -0.109375,-0.109375 0,0 -0.03125,0 -0.078125,0.03125 C 3.703125,-6.515625 3.21875,-6.3125 2.546875,-6.3125 2.15625,-6.3125 1.6875,-6.390625 1.21875,-6.59375 1.140625,-6.625 1.125,-6.625 1.109375,-6.625 1,-6.625 1,-6.546875 1,-6.390625 V -3.4375 c 0,0.171875 0,0.25 0.140625,0.25 0.078125,0 0.09375,-0.015625 0.140625,-0.078125 C 1.390625,-3.421875 1.75,-3.96875 2.5625,-3.96875 c 0.515625,0 0.765625,0.453125 0.84375,0.640625 0.15625,0.375 0.1875,0.75 0.1875,1.25 0,0.359375 0,0.953125 -0.25,1.375 C 3.109375,-0.3125 2.734375,-0.0625 2.28125,-0.0625 c -0.71875,0 -1.296875,-0.53125 -1.46875,-1.109375 0.03125,0 0.0625,0.015625 0.171875,0.015625 0.328125,0 0.5,-0.25 0.5,-0.484375 0,-0.25 -0.171875,-0.5 -0.5,-0.5 C 0.84375,-2.140625 0.5,-2.0625 0.5,-1.609375 0.5,-0.75 1.1875,0.21875 2.296875,0.21875 3.453125,0.21875 4.46875,-0.734375 4.46875,-2 Z m 0,0"
               id="path7732"
               style="stroke-width:0" />
          </g>
          <g
             id="g953"
             style="stroke-width:0">
            <path
               d="m 3.53125,-1.734375 c 0,-0.84375 -0.671875,-1.5 -1.5,-1.5 -0.828125,0 -1.5,0.671875 -1.5,1.484375 0,0.84375 0.6875,1.5 1.5,1.5 0.84375,0 1.5,-0.671875 1.5,-1.484375 z m -1.5,1.140625 C 1.375,-0.59375 0.875,-1.125 0.875,-1.734375 c 0,-0.65625 0.515625,-1.171875 1.15625,-1.171875 0.65625,0 1.15625,0.53125 1.15625,1.15625 0,0.65625 -0.515625,1.15625 -1.15625,1.15625 z m 0,0"
               id="path5790"
               style="stroke-width:0" />
          </g>
        </g>
      </defs>
      <g
         fill="#000000"
         fill-opacity="1"
         id="g2100"
         transform="translate(-149.118,-127.915)"
         style="stroke-width:0">
        <g
           transform="translate(148.712,134.765)"
           id="g3934"
           style="stroke-width:0">
          <path
             d="m 4.75,-2.359375 c 0,-1.5625 -0.921875,-2.046875 -1.65625,-2.046875 -1.375,0 -2.6875,1.421875 -2.6875,2.828125 0,0.9375 0.59375,1.6875 1.625,1.6875 0.625,0 1.34375,-0.234375 2.09375,-0.84375 0.125,0.53125 0.453125,0.84375 0.90625,0.84375 0.53125,0 0.84375,-0.546875 0.84375,-0.703125 0,-0.078125 -0.0625,-0.109375 -0.125,-0.109375 -0.0625,0 -0.09375,0.03125 -0.125,0.109375 -0.1875,0.484375 -0.546875,0.484375 -0.5625,0.484375 -0.3125,0 -0.3125,-0.78125 -0.3125,-1.015625 0,-0.203125 0,-0.234375 0.109375,-0.34375 C 5.796875,-2.65625 6,-3.8125 6,-3.8125 6,-3.84375 5.984375,-3.921875 5.875,-3.921875 c -0.09375,0 -0.09375,0.03125 -0.140625,0.21875 -0.1875,0.625 -0.515625,1.375 -0.984375,1.96875 z m -0.65625,1.375 c -0.890625,0.765625 -1.65625,0.875 -2.046875,0.875 -0.59375,0 -0.90625,-0.453125 -0.90625,-1.09375 0,-0.484375 0.265625,-1.5625 0.578125,-2.0625 C 2.1875,-4 2.734375,-4.1875 3.078125,-4.1875 c 0.984375,0 0.984375,1.3125 0.984375,2.078125 0,0.375 0,0.953125 0.03125,1.125 z m 0,0"
             id="path2185"
             style="stroke-width:0" />
        </g>
      </g>
      <g
         fill="#000000"
         fill-opacity="1"
         id="g2483"
         transform="translate(-149.118,-127.915)"
         style="stroke-width:0">
        <g
           transform="translate(157.89,134.765)"
           id="g4169"
           style="stroke-width:0">
          <path
             d="m 6.84375,-3.265625 c 0.15625,0 0.34375,0 0.34375,-0.1875 C 7.1875,-3.65625 7,-3.65625 6.859375,-3.65625 h -5.96875 c -0.140625,0 -0.328125,0 -0.328125,0.203125 0,0.1875 0.1875,0.1875 0.328125,0.1875 z m 0.015625,1.9375 c 0.140625,0 0.328125,0 0.328125,-0.203125 0,-0.1875 -0.1875,-0.1875 -0.34375,-0.1875 H 0.890625 c -0.140625,0 -0.328125,0 -0.328125,0.1875 0,0.203125 0.1875,0.203125 0.328125,0.203125 z m 0,0"
             id="path3758"
             style="stroke-width:0" />
        </g>
      </g>
      <g
         fill="#000000"
         fill-opacity="1"
         id="g1102"
         transform="translate(-149.118,-127.915)"
         style="stroke-width:0">
        <g
           transform="translate(168.399,134.765)"
           id="g8190"
           style="stroke-width:0">
          <path
             d="m 2.9375,-1.640625 v 0.859375 c 0,0.359375 -0.03125,0.46875 -0.765625,0.46875 H 1.96875 V 0 C 2.375,-0.03125 2.890625,-0.03125 3.3125,-0.03125 c 0.421875,0 0.9375,0 1.359375,0.03125 v -0.3125 h -0.21875 c -0.734375,0 -0.75,-0.109375 -0.75,-0.46875 V -1.640625 H 4.6875 v -0.3125 H 3.703125 v -4.53125 c 0,-0.203125 0,-0.265625 -0.171875,-0.265625 -0.078125,0 -0.109375,0 -0.1875,0.125 l -3.0625,4.671875 v 0.3125 z m 0.046875,-0.3125 H 0.5625 l 2.421875,-3.71875 z m 0,0"
             id="path441"
             style="stroke-width:0" />
        </g>
        <g
           transform="translate(173.38,134.765)"
           id="g4499"
           style="stroke-width:0">
          <path
             d="m 4.46875,-2 c 0,-1.1875 -0.8125,-2.1875 -1.890625,-2.1875 -0.46875,0 -0.90625,0.15625 -1.265625,0.515625 V -5.625 c 0.203125,0.0625 0.53125,0.125 0.84375,0.125 1.234375,0 1.9375,-0.90625 1.9375,-1.03125 0,-0.0625 -0.03125,-0.109375 -0.109375,-0.109375 0,0 -0.03125,0 -0.078125,0.03125 C 3.703125,-6.515625 3.21875,-6.3125 2.546875,-6.3125 2.15625,-6.3125 1.6875,-6.390625 1.21875,-6.59375 1.140625,-6.625 1.125,-6.625 1.109375,-6.625 1,-6.625 1,-6.546875 1,-6.390625 V -3.4375 c 0,0.171875 0,0.25 0.140625,0.25 0.078125,0 0.09375,-0.015625 0.140625,-0.078125 C 1.390625,-3.421875 1.75,-3.96875 2.5625,-3.96875 c 0.515625,0 0.765625,0.453125 0.84375,0.640625 0.15625,0.375 0.1875,0.75 0.1875,1.25 0,0.359375 0,0.953125 -0.25,1.375 C 3.109375,-0.3125 2.734375,-0.0625 2.28125,-0.0625 c -0.71875,0 -1.296875,-0.53125 -1.46875,-1.109375 0.03125,0 0.0625,0.015625 0.171875,0.015625 0.328125,0 0.5,-0.25 0.5,-0.484375 0,-0.25 -0.171875,-0.5 -0.5,-0.5 C 0.84375,-2.140625 0.5,-2.0625 0.5,-1.609375 0.5,-0.75 1.1875,0.21875 2.296875,0.21875 3.453125,0.21875 4.46875,-0.734375 4.46875,-2 Z m 0,0"
             id="path5931"
             style="stroke-width:0" />
        </g>
      </g>
      <g
         fill="#000000"
         fill-opacity="1"
         id="g1509"
         transform="translate(-149.118,-127.915)"
         style="stroke-width:0">
        <g
           transform="translate(178.368,131.149)"
           id="g2674"
           style="stroke-width:0">
          <path
             d="m 3.53125,-1.734375 c 0,-0.84375 -0.671875,-1.5 -1.5,-1.5 -0.828125,0 -1.5,0.671875 -1.5,1.484375 0,0.84375 0.6875,1.5 1.5,1.5 0.84375,0 1.5,-0.671875 1.5,-1.484375 z m -1.5,1.140625 C 1.375,-0.59375 0.875,-1.125 0.875,-1.734375 c 0,-0.65625 0.515625,-1.171875 1.15625,-1.171875 0.65625,0 1.15625,0.53125 1.15625,1.15625 0,0.65625 -0.515625,1.15625 -1.15625,1.15625 z m 0,0"
             id="path4400"
             style="stroke-width:0" />
        </g>
      </g>
    </g>
    <path
       style="fill:#cccccc;stroke:#ff0000;stroke-width:0;stroke-linecap:square"
       d="m 149.80628,135.14685 9.2189,-9.36685 3.03204,1.90729 c 3.82769,2.40779 5.75423,8.43602 6.20375,12.37189 l 0.18087,5.64653 -13.86732,-0.149 -15.03016,-0.149 z"
       id="path1"
       sodipodi:nodetypes="ccsscccc" />
  </g>
</svg>
